<?xml version="1.0" encoding="UTF-8"?>
<svg xmlns="http://www.w3.org/2000/svg" width="362.3" height="545.1" version="1.1" viewBox="0 0 362.3 545.1">
  <defs>
    <style>
      .cls-1 {
        stroke-width: .4px;
      }

      .cls-1, .cls-2, .cls-3, .cls-4, .cls-5, .cls-6 {
        fill: none;
        stroke: #fff;
      }

      .cls-1, .cls-4, .cls-6 {
        stroke-miterlimit: 10;
      }

      .cls-2 {
        stroke-miterlimit: 10;
        stroke-width: 1px;
      }

      .cls-3 {
        stroke-miterlimit: 10;
        stroke-width: 1px;
      }

      .cls-5 {
        stroke-miterlimit: 10;
        stroke-width: .4px;
      }

      .cls-6 {
        stroke-width: 1.5px;
      }
    </style>
  </defs>
  <!-- Generator: Adobe Illustrator 28.7.7, SVG Export Plug-In . SVG Version: 1.2.0 Build 194)  -->
  <g>
    <g id="Layer_1">
      <g>
        <path class="cls-6" d="M161.4,62.5c-21.298,14.899-46.296,37.897-62.097,73.792-15.861,36.034-27.618,74.662-38.805,112.354-11.797,39.746-21.764,80.034-29.857,120.696-4.289,21.551-8.052,43.206-11.282,64.941-2.096,14.109-3.973,28.401-2.63,42.601,2.342,24.759,15.37,43.635,39.07,52.215,8.8,3.2,16.4,3.4,23.1,3.7,3.4.1,17.1.5,28.3-3.1,20.131-6.471,31.185-25.887,41.171-43.165,14.447-24.994,23.333-52.288,32.814-79.384,10.277-29.37,19.279-59.615,21.915-90.752.7-8.5,1.2-16.4,1.2-20.5"/>
        <ellipse class="cls-2" cx="144.206" cy="86.713" rx="17.5" ry="7.6" transform="translate(-22.851 106.873) rotate(-37.9)"/>
        <ellipse class="cls-2" cx="129.27" cy="123.167" rx="18.5" ry="8.9" transform="translate(-48.395 105.386) rotate(-37.9)"/>
        <path class="cls-4" d="M206.8,35.1c54.4-22.7,105.8-22.4,127.9,3.5,7.5,8.8,9.9,18.9,9.9,18.9,1.6,6,1.7,11,1.6,17.5-.6,19.3-3.4,34.5-3.8,36.8-2.2,12-5.3,25.1-9.7,39.7-2,6.5-2.1,6.5-23.5,56.1-1.2,2.8-3.9,8-9.5,12.1-7.4,5.4-15.8,5.4-19.1,5.4-16.7-.2-36.2,2.4-50.3,12-3.4,2.3-11,8.3-14.4,15"/>
        <g>
          <path class="cls-1" d="M179.5,74.7c-3.3,4.9-4.4,9.6-2.3,12.8.5.7,1,1.3,1.7,1.8"/>
          <ellipse class="cls-5" cx="183.823" cy="48.686" rx="22.7" ry="9.7" transform="translate(2.934 107.341) rotate(-32.8)"/>
          <path class="cls-1" d="M173.3,74.6c-2.4,4.3-2.9,8.3-1.1,11.1,4.1,6.3,18.6,4.1,32.4-4.8,6.725-4.337,13.456-10.108,17.093-17.386,1.176-2.353,2.117-5.115,1.65-7.776-.4-2.284-1.994-4.238-4.043-5.276-2.255-1.142-4.866-.865-7.3-.662"/>
          <path class="cls-1" d="M222.8,60.9c-.2-.8-.5-1.6-.9-2.3-2-3.1-6.7-4.1-12.5-3.1"/>
          <path class="cls-4" d="M209.1,55c.4.6,1.2,1.7,1.7,2.4,2.6,4-2.5,10.8-10.8,16.2s-16.6,7.2-19.2,3.2c-.5-.7-1.1-1.8-1.5-2.5"/>
          <path class="cls-4" d="M207.576,36.398c-.477-.727-.721-1.243-.776-1.298h0c-4.3-4.7-16.7-2.6-28.6,5.1s-18.8,17.9-16.4,23.8c.1.3,3.641,6.091,4.441,7.191.259.409.659,1.009.859,1.209,4.3,4.7,16.7,2.6,28.6-5.1,11.8-7.6,18.8-17.9,16.4-23.8-.1-.3-.7-1.2-.9-1.5-.145-.218-2.354-3.663-3.624-5.602Z"/>
        </g>
        <g>
          <ellipse class="cls-3" cx="166.921" cy="127.949" rx="20.6" ry="11.5" transform="translate(-43.387 125.853) rotate(-36.9)"/>
          <path class="cls-4" d="M183.8,116.2c.6.6,3,3.7,3.5,4.4,4,5.3-.2,15.4-9.7,22.5s-20.9,8.9-24.4,3.2c-.9-1.5-2.634-5.51-3.334-6.91"/>
        </g>
        <g>
          <path class="cls-4" d="M205.1,238.6c-2,.4-15.2,3.8-43.9,10.2-.8.2-2.7.6-5.1,1.5-1.7.6-5.5,2-8.6,4.6-4.7,3.8-6.3,8.9-7,11-3.2,9.9.5,18.8,1.8,21.9,1.4,3.3,4.8,11.2,13.2,16,1.8,1,7.2,4,14.4,3.7,1.6,0,3.2-.4,6.4-1.2,4-.9,7.2-1.9,22.4-7.5,1.1-.4,2.9-1.1,5-2.6,1-.7,2.8-2,4.3-4.2,1.6-2.4,2-4.7,2.1-5.8.9-5.5,5.5-32.8,6.2-36.4,0-.2.4-2.2.3-4.9-.1-2.2-.2-3.5-1.1-4.7-1.6-2.3-4.8-2.5-5.5-2.5-2,.1-1.7.2-5,.9h.1Z"/>
          <path class="cls-1" d="M184.1,303.9c-3.4-.5-10.8-.1-17-7.8-1.1-1.4-1.8-2.5-2.4-3.7-1.6-2.8-5.1-9.1-4.6-17.7.1-2.4.9-10.2,6.7-16.9,2.2-2.5,5.2-4.7,5.2-4.7,0,0,1.4-1,2.9-1.9,7.4-4.4,35.9-9.9,35.9-9.9.6-.1,2.7-.3,4.4,1.1,1.3,1,1.4,2.1,1.4,2.4"/>
        </g>
        <path class="cls-1" d="M170.5,307.3c-7,27.2-14.8,54.2-23.5,80.9-8.9,27.3-19.101,53.999-29.2,80.9-.93,2.479-1.862,4.956-2.801,7.431-1.279,3.374-2.597,6.733-3.954,10.077-1.279,3.153-2.655,6.271-4.148,9.33s-3.119,6.062-4.922,8.953c-.19.304-.382.608-.576.91-6.1,9.5-13.3,16.1-22.3,21.6-5,3.1-9.1,4.3-11.7,4.5"/>
        <path class="cls-4" d="M332.7,151.5c2.7,5.6,5.1,11,5.6,14.4.5,3.6.8,7.6-.4,11.9-1.1,4-3.6,6.5-4.1,7.1-.3.3-1.1,1.4-2.5,2.7-5,4.6-17.1,11.1-18.8,12.1"/>
        <path class="cls-1" d="M203.1,316.3c-4.2,2.2-7.1,8.6-9.4,14.8-1.3,3.7-1.6,6-2.9,11.8-1,4.4-2.1,8.9-4.5,17.9-6.9,25.9-15.5,51.5-25,76.6-4,10.7-8.3,21.4-12.7,31.9-2.7,6.5-5.9,12.6-8.8,19-2,4.4-3.1,9.7-.6,13.8"/>
        <path class="cls-1" d="M172.6,245.9c-.3-1.7-2.5-10,1-15.9,1.3-2.2,3-3.8,3-3.8,2.5-2.3,5.1-3.3,6.5-3.8,6.6-2.3,12.9-3.5,15.6-4.1,3.2-.7,6.9-2,14.3-4.5,2.2-.8,16.9-5.9,30.4-12.5,29-14.3,50.3-34.5,56.5-40.6,8.6-8.4,18.3-18.1,27.8-33.5,10.6-17.2,14.5-27.7,16-35.2,1.1-5.1,2.2-9.8,2.4-12.8"/>
        <g>
          <ellipse class="cls-3" cx="221.632" cy="99.156" rx="20.6" ry="11.5" transform="translate(-15.139 152.935) rotate(-36.9)"/>
          <path class="cls-4" d="M238.5,87.4c.6.6,3,3.7,3.5,4.4,4,5.3-.2,15.4-9.7,22.5s-20.9,8.9-24.4,3.2c-.9-1.5-2.778-5.83-3.478-7.23"/>
        </g>
      </g>
    </g>
  </g>
</svg>