<?xml version="1.0" encoding="UTF-8"?>
<svg xmlns="http://www.w3.org/2000/svg" width="362.3" height="545.1" version="1.1" viewBox="0 0 362.3 545.1">
  <defs>
    <style>
      .cls-1 {
        stroke-width: .4px;
      }

      .cls-1, .cls-2, .cls-3, .cls-4, .cls-5, .cls-6 {
        fill: none;
        stroke: #fff;
      }

      .cls-1, .cls-4, .cls-6 {
        stroke-miterlimit: 10;
      }

      .cls-2 {
        stroke-miterlimit: 10;
        stroke-width: 1px;
      }

      .cls-3 {
        stroke-miterlimit: 10;
        stroke-width: 1px;
      }

      .cls-5 {
        stroke-miterlimit: 10;
        stroke-width: .4px;
      }

      .cls-6 {
        stroke-width: 1.5px;
      }
    </style>
  </defs>
  <!-- Generator: Adobe Illustrator 28.7.7, SVG Export Plug-In . SVG Version: 1.2.0 Build 194)  -->
  <g>
    <g id="Layer_1">
      <g>
        <path class="cls-6" d="M158.205,295.9c0,4.1.5,12,1.2,20.5,2.636,31.137,11.638,61.382,21.915,90.752,9.481,27.095,18.367,54.389,32.814,79.384,9.986,17.277,21.04,36.694,41.171,43.165,11.2,3.6,24.9,3.2,28.3,3.1,6.7-.3,14.3-.5,23.1-3.7,23.7-8.581,36.728-27.457,39.07-52.215,1.343-14.201-.533-28.492-2.63-42.601-3.229-21.735-6.992-43.39-11.282-64.941-8.093-40.662-18.06-80.95-29.857-120.696-11.187-37.693-22.944-76.32-38.805-112.354-15.8-35.895-40.798-58.893-62.097-73.792"/>
        <ellipse class="cls-2" cx="218.299" cy="86.713" rx="7.6" ry="17.5" transform="translate(15.778 205.703) rotate(-52.1)"/>
        <ellipse class="cls-2" cx="233.235" cy="123.167" rx="8.9" ry="18.5" transform="translate(-7.227 231.549) rotate(-52.1)"/>
        <path class="cls-4" d="M146.605,252.1c-3.4-6.7-11-12.7-14.4-15-14.1-9.6-33.6-12.2-50.3-12-3.3,0-11.7,0-19.1-5.4-5.6-4.1-8.3-9.3-9.5-12.1-21.4-49.6-21.5-49.6-23.5-56.1-4.4-14.6-7.5-27.7-9.7-39.7-.4-2.3-3.2-17.5-3.8-36.8-.1-6.5,0-11.5,1.6-17.5,0,0,2.4-10.1,9.9-18.9,22.1-25.9,73.5-26.2,127.9-3.5"/>
        <g>
          <path class="cls-1" d="M183.605,89.3c.7-.5,1.2-1.1,1.7-1.8,2.1-3.2,1-7.9-2.3-12.8"/>
          <ellipse class="cls-5" cx="178.682" cy="48.686" rx="9.7" ry="22.7" transform="translate(40.965 172.506) rotate(-57.2)"/>
          <path class="cls-1" d="M150.505,49.8c-2.434-.203-5.046-.48-7.3.662-2.049,1.038-3.643,2.992-4.043,5.276-.466,2.661.474,5.423,1.65,7.776,3.637,7.278,10.368,13.049,17.093,17.386,13.8,8.9,28.3,11.1,32.4,4.8,1.8-2.8,1.3-6.8-1.1-11.1"/>
          <path class="cls-1" d="M153.105,55.5c-5.8-1-10.5,0-12.5,3.1-.4.7-.7,1.5-.9,2.3"/>
          <path class="cls-4" d="M183.205,74.3c-.4.7-1,1.8-1.5,2.5-2.6,4-10.9,2.2-19.2-3.2s-13.4-12.2-10.8-16.2c.5-.7,1.3-1.8,1.7-2.4"/>
          <path class="cls-4" d="M151.305,42c-.2.3-.8,1.2-.9,1.5-2.4,5.9,4.6,16.2,16.4,23.8,11.9,7.7,24.3,9.8,28.6,5.1.2-.2.6-.8.859-1.209.8-1.1,4.341-6.891,4.441-7.191,2.4-5.9-4.5-16.1-16.4-23.8-11.9-7.7-24.3-9.8-28.6-5.1h0c-.055.055-.299.57-.776,1.298-1.271,1.94-3.479,5.384-3.624,5.602Z"/>
        </g>
        <g>
          <ellipse class="cls-3" cx="195.584" cy="127.949" rx="11.5" ry="20.6" transform="translate(-24.168 207.531) rotate(-53.1)"/>
          <path class="cls-4" d="M212.638,139.39c-.7,1.4-2.434,5.41-3.334,6.91-3.5,5.7-14.9,3.9-24.4-3.2-9.5-7.1-13.7-17.2-9.7-22.5.5-.7,2.9-3.8,3.5-4.4"/>
        </g>
        <g>
          <path class="cls-4" d="M157.505,238.6c-3.3-.7-3-.8-5-.9-.7,0-3.9.2-5.5,2.5-.9,1.2-1,2.5-1.1,4.7-.1,2.7.3,4.7.3,4.9.7,3.6,5.3,30.9,6.2,36.4.1,1.1.5,3.4,2.1,5.8,1.5,2.2,3.3,3.5,4.3,4.2,2.1,1.5,3.9,2.2,5,2.6,15.2,5.6,18.4,6.6,22.4,7.5,3.2.8,4.8,1.2,6.4,1.2,7.2.3,12.6-2.7,14.4-3.7,8.4-4.8,11.8-12.7,13.2-16,1.3-3.1,5-12,1.8-21.9-.7-2.1-2.3-7.2-7-11-3.1-2.6-6.9-4-8.6-4.6-2.4-.9-4.3-1.3-5.1-1.5-28.7-6.4-41.9-9.8-43.9-10.2h.1Z"/>
          <path class="cls-1" d="M145.905,244.8c0-.3.1-1.4,1.4-2.4,1.7-1.4,3.8-1.2,4.4-1.1,0,0,28.5,5.5,35.9,9.9,1.5.9,2.9,1.9,2.9,1.9,0,0,3,2.2,5.2,4.7,5.8,6.7,6.6,14.5,6.7,16.9.5,8.6-3,14.9-4.6,17.7-.6,1.2-1.3,2.3-2.4,3.7-6.2,7.7-13.6,7.3-17,7.8"/>
        </g>
        <path class="cls-1" d="M295.105,531.9c-2.6-.2-6.7-1.4-11.7-4.5-9-5.5-16.2-12.1-22.3-21.6-.194-.302-.386-.605-.576-.91-1.803-2.891-3.428-5.891-4.922-8.953s-2.868-6.177-4.148-9.33c-1.357-3.344-2.675-6.703-3.954-10.077-.938-2.475-1.87-4.952-2.801-7.431-10.099-26.901-20.3-53.6-29.2-80.9-8.7-26.7-16.5-53.7-23.5-80.9"/>
        <path class="cls-4" d="M50.005,199.7c-1.7-1-13.8-7.5-18.8-12.1-1.4-1.3-2.2-2.4-2.5-2.7-.5-.6-3-3.1-4.1-7.1-1.2-4.3-.9-8.3-.4-11.9.5-3.4,2.9-8.8,5.6-14.4"/>
        <path class="cls-1" d="M223.305,502.1c2.5-4.1,1.4-9.4-.6-13.8-2.9-6.4-6.1-12.5-8.8-19-4.4-10.5-8.7-21.2-12.7-31.9-9.5-25.1-18.1-50.7-25-76.6-2.4-9-3.5-13.5-4.5-17.9-1.3-5.8-1.6-8.1-2.9-11.8-2.3-6.2-5.2-12.6-9.4-14.8"/>
        <path class="cls-1" d="M16.405,79.2c.2,3,1.3,7.7,2.4,12.8,1.5,7.5,5.4,18,16,35.2,9.5,15.4,19.2,25.1,27.8,33.5,6.2,6.1,27.5,26.3,56.5,40.6,13.5,6.6,28.2,11.7,30.4,12.5,7.4,2.5,11.1,3.8,14.3,4.5,2.7.6,9,1.8,15.6,4.1,1.4.5,4,1.5,6.5,3.8,0,0,1.7,1.6,3,3.8,3.5,5.9,1.3,14.2,1,15.9"/>
        <g>
          <ellipse class="cls-3" cx="140.873" cy="99.156" rx="11.5" ry="20.6" transform="translate(-23.003 152.275) rotate(-53.1)"/>
          <path class="cls-4" d="M158.083,110.27c-.7,1.4-2.578,5.73-3.478,7.23-3.5,5.7-14.9,3.9-24.4-3.2-9.5-7.1-13.7-17.2-9.7-22.5.5-.7,2.9-3.8,3.5-4.4"/>
        </g>
      </g>
    </g>
  </g>
</svg>